<?xml version="1.0" standalone="no"?>
<!DOCTYPE svg PUBLIC "-//W3C//DTD SVG 20010904//EN"
 "http://www.w3.org/TR/2001/REC-SVG-20010904/DTD/svg10.dtd">
<svg version="1.0" xmlns="http://www.w3.org/2000/svg"
 width="1055.000000pt" height="1035.000000pt" viewBox="0 0 1055.000000 1035.000000"
 preserveAspectRatio="xMidYMid meet">

<g transform="translate(0.000000,1035.000000) scale(0.100000,-0.100000)"
fill="#000000" stroke="none">
<path d="M4845 9044 c-235 -22 -361 -48 -543 -113 -205 -73 -438 -217 -530
-327 -30 -36 -43 -44 -81 -50 -67 -9 -226 -51 -306 -81 -247 -92 -458 -253
-625 -474 -107 -142 -195 -315 -237 -463 l-28 -98 -80 -69 c-113 -98 -210
-219 -282 -351 -110 -203 -153 -376 -154 -615 0 -82 5 -175 10 -208 6 -33 11
-89 11 -125 0 -278 102 -576 259 -757 177 -206 436 -345 723 -389 112 -17 323
-14 452 7 78 13 86 8 86 -52 0 -114 99 -346 194 -459 31 -36 56 -67 56 -70 0
-3 -35 -27 -78 -55 -200 -128 -249 -160 -268 -177 -21 -18 -22 -18 -67 4 l-46
23 -1 138 c0 147 -7 177 -43 177 -42 0 -47 -16 -47 -162 l0 -139 -54 -52 c-43
-42 -54 -61 -58 -92 -9 -79 18 -139 82 -182 41 -29 100 -30 159 -2 l44 20 56
-41 c31 -22 129 -88 219 -147 l162 -107 0 -51 c0 -73 33 -133 89 -162 87 -45
175 -23 228 56 40 59 27 156 -28 217 -18 20 -18 24 57 247 l76 227 121 -7
c214 -10 389 22 596 111 47 20 89 40 95 46 17 17 23 12 56 -47 68 -121 163
-206 360 -323 41 -24 104 -72 138 -105 138 -130 375 -512 478 -767 18 -45 20
-47 91 -68 136 -40 337 -27 442 30 62 33 50 215 -34 496 -35 116 -55 198 -49
203 2 2 42 -4 89 -14 67 -14 114 -16 223 -12 158 6 245 26 392 90 113 49 134
62 251 150 226 171 395 480 424 774 l7 73 71 37 c333 175 527 468 578 870 15
120 7 406 -16 528 -35 195 -119 372 -254 534 l-78 94 -6 116 c-12 208 -37 302
-128 481 -88 174 -75 167 -153 85 -36 -39 -65 -75 -66 -82 0 -6 18 -44 39 -85
22 -40 49 -107 60 -148 23 -90 45 -234 40 -272 l-4 -27 -49 30 c-68 43 -110
48 -141 19 -15 -14 -25 -35 -25 -51 0 -33 26 -54 145 -120 105 -57 255 -204
310 -304 51 -90 98 -233 120 -360 26 -146 24 -362 -4 -485 -96 -428 -369 -682
-756 -707 -92 -5 -119 -3 -445 42 -264 37 -450 47 -616 35 -124 -9 -368 -45
-464 -69 -278 -69 -572 -184 -930 -364 -297 -150 -360 -176 -495 -208 -76 -18
-128 -23 -215 -23 -139 1 -210 18 -340 81 -81 40 -108 60 -185 137 -138 140
-184 241 -192 426 -5 98 -2 127 16 195 46 165 148 305 294 402 75 49 215 103
269 103 35 0 35 -4 -6 120 -45 139 -60 214 -64 322 -3 104 15 254 38 303 9 21
40 128 40 140 0 4 -8 4 -17 0 -47 -18 -136 -25 -200 -15 -381 59 -547 530
-289 816 155 173 390 213 598 102 139 -74 247 -253 248 -411 0 -27 4 -47 9
-45 5 2 36 24 69 50 l61 47 -26 83 c-35 115 -76 187 -151 269 -81 88 -149 132
-262 170 -151 50 -299 38 -460 -38 -59 -28 -94 -54 -161 -122 -98 -99 -137
-168 -170 -301 -33 -131 -14 -276 54 -420 59 -125 196 -248 333 -300 59 -22
257 -55 281 -46 10 4 10 1 1 -14 -9 -13 -14 -16 -20 -7 -15 24 -21 -6 -33
-155 -7 -84 -13 -148 -14 -143 -1 6 -7 1 -12 -10 -6 -15 -7 -11 -3 15 6 32 5
33 -10 20 -13 -10 -19 -11 -25 -2 -4 6 -18 13 -31 14 -28 3 -36 -21 -25 -78 4
-24 11 -34 25 -34 10 0 21 4 25 9 3 6 19 16 35 25 30 14 30 14 30 -15 0 -16 1
-32 3 -36 3 -12 -40 -16 -88 -8 -42 6 -43 7 -49 53 -8 56 -39 159 -52 171 -5
5 -43 23 -84 39 -41 16 -103 42 -137 57 l-62 28 -96 -58 c-110 -65 -92 -68
-197 36 l-67 67 57 92 c65 107 70 140 29 193 -15 20 -30 51 -34 69 -9 45 -37
111 -54 124 -8 6 -45 19 -84 29 -119 31 -121 32 -129 120 -9 95 0 163 23 169
9 3 51 12 95 21 43 8 84 19 91 25 7 6 20 32 30 58 9 26 35 87 57 135 l40 88
-45 67 c-24 37 -52 82 -61 100 l-16 32 76 80 c42 44 82 80 89 80 7 0 47 -21
90 -47 89 -55 122 -58 181 -21 22 14 75 38 117 53 42 15 80 33 85 39 5 6 19
52 32 101 13 50 28 96 33 103 7 8 44 12 122 12 78 0 116 -4 122 -12 6 -7 13
-35 17 -61 3 -27 13 -72 21 -102 l16 -54 67 -22 c37 -12 97 -37 134 -55 37
-19 78 -34 91 -34 12 0 56 20 97 45 41 24 83 45 93 45 10 0 52 -33 93 -73 l75
-74 -34 -59 c-18 -32 -45 -78 -60 -101 l-27 -42 29 -63 c15 -35 41 -101 56
-148 16 -47 29 -86 31 -88 1 -2 49 4 105 12 57 9 133 19 169 24 36 4 64 12 63
17 -1 11 -50 28 -158 55 -75 18 -71 14 -119 119 l-25 55 61 100 c34 56 63 104
65 108 12 23 -275 328 -310 328 -4 0 -43 -22 -87 -50 -106 -66 -145 -67 -270
-7 -26 13 -31 24 -73 172 l-23 80 -44 7 c-57 8 -304 10 -361 2 l-44 -6 -36
-121 -35 -120 -81 -37 -80 -37 -104 58 c-57 32 -107 59 -110 59 -22 0 -205
-179 -270 -265 -49 -65 -49 -60 31 -182 28 -42 50 -79 50 -83 0 -8 -58 -152
-64 -157 -2 -2 -52 -17 -111 -33 -59 -15 -111 -34 -116 -41 -26 -42 -25 -408
2 -434 8 -8 63 -31 123 -52 l110 -38 29 -72 29 -71 -61 -103 c-34 -57 -61
-112 -61 -123 0 -24 288 -316 311 -316 8 0 62 30 119 66 l103 66 83 -44 82
-43 17 -75 c27 -125 36 -144 75 -157 19 -7 54 -12 77 -12 23 -1 44 -5 47 -10
3 -4 -24 -21 -60 -36 -136 -58 -285 -183 -375 -317 l-40 -58 -42 24 c-23 13
-125 68 -227 121 -276 146 -260 134 -260 204 0 33 -5 72 -11 88 -21 58 -92
110 -170 127 -25 5 -28 14 -68 183 -24 98 -44 187 -47 199 -2 13 5 29 17 40
35 31 59 90 59 142 0 119 -126 198 -235 146 -41 -19 -82 -76 -92 -129 l-8 -40
-175 -87 c-96 -47 -179 -87 -184 -87 -19 -2 2 270 29 374 102 396 429 700 813
755 45 7 82 16 82 21 0 4 -14 32 -31 61 -17 29 -35 63 -40 76 -5 12 -16 25
-24 28 -8 4 -59 -6 -112 -20 -116 -32 -153 -40 -153 -33 0 12 47 110 86 177
104 181 274 350 460 458 76 44 271 125 283 118 4 -3 -9 -40 -30 -83 -55 -115
-55 -112 26 -155 39 -21 77 -38 86 -38 11 0 26 26 48 88 31 87 91 198 130 239
21 22 24 22 361 23 l340 0 14 -34 c8 -19 31 -45 50 -58 42 -27 44 -41 20 -193
-20 -126 -28 -215 -21 -215 3 0 18 5 32 12 31 14 59 97 84 254 16 100 18 107
46 121 71 36 105 88 105 158 0 75 -39 129 -114 160 -55 23 -105 12 -159 -36
-25 -21 -47 -49 -50 -61 l-6 -23 -306 -1 c-168 -1 -305 2 -305 6 0 10 229 159
300 195 71 36 194 80 295 106 262 68 498 75 795 23 157 -27 155 -25 74 -79
-83 -54 -204 -179 -262 -268 -53 -81 -98 -185 -131 -306 l-20 -71 54 -62 c54
-62 85 -87 85 -70 0 6 7 9 16 8 13 -1 21 21 39 99 23 101 70 222 111 283 40
61 134 161 194 207 74 57 177 106 295 142 80 24 106 27 235 27 155 0 259 -18
380 -67 52 -22 181 -94 238 -134 30 -21 28 -9 -4 20 l-26 24 27 5 c20 4 33 -1
51 -21 25 -27 31 -51 13 -51 -5 0 -7 5 -4 10 3 6 -1 10 -10 10 -11 0 -15 -5
-12 -14 13 -32 -16 -34 -73 -5 -82 41 -189 56 -288 40 -359 -60 -619 -280
-718 -606 -24 -80 -27 -106 -28 -235 0 -130 3 -154 28 -235 68 -223 228 -410
440 -515 157 -77 280 -102 436 -89 228 19 360 96 571 334 99 111 145 191 179
319 19 70 22 97 17 230 -3 124 -8 163 -27 216 -13 36 -29 75 -37 87 -24 36 1
35 73 -5 131 -72 230 -148 311 -236 l52 -56 75 61 c42 33 76 64 76 69 0 4 -39
49 -86 99 -133 141 -302 246 -484 300 -124 37 -121 35 -184 136 -62 100 -164
207 -276 289 -111 82 -301 164 -443 191 -113 22 -333 30 -432 15 -112 -17
-109 -17 -220 25 -136 50 -216 72 -332 89 -99 15 -374 27 -448 20z m1528 -201
c-7 -2 -19 -2 -25 0 -7 3 -2 5 12 5 14 0 19 -2 13 -5z m47 -13 c0 -5 -5 -10
-11 -10 -5 0 -7 5 -4 10 3 6 8 10 11 10 2 0 4 -4 4 -10z m0 -30 c0 -5 -4 -10
-10 -10 -5 0 -10 5 -10 10 0 6 5 10 10 10 6 0 10 -4 10 -10z m-65 -60 c19 -21
9 -54 -14 -44 -9 3 -58 15 -110 25 -52 10 -97 21 -100 25 -3 3 22 4 56 3 35
-1 66 0 69 4 13 13 84 4 99 -13z m30 10 c3 -5 -1 -10 -9 -10 -9 0 -16 5 -16
10 0 6 4 10 9 10 6 0 13 -4 16 -10z m355 -120 c0 -5 -5 -10 -11 -10 -5 0 -7 5
-4 10 3 6 8 10 11 10 2 0 4 -4 4 -10z m78 -32 c-2 -7 2 -12 8 -11 6 1 11 -5
11 -13 0 -18 -2 -18 -21 2 -18 18 -21 34 -6 34 6 0 9 -6 8 -12z m-22 -30 c-3
-13 -3 -18 0 -11 4 10 10 10 25 0 23 -14 26 -32 3 -23 -9 3 -12 2 -8 -5 3 -6
-3 -5 -15 3 -22 13 -30 58 -10 58 6 0 8 -10 5 -22z m-246 -183 c36 -9 103 -34
150 -57 117 -58 248 -188 301 -298 60 -124 74 -188 73 -330 0 -143 -22 -225
-89 -345 -48 -87 -163 -202 -249 -250 -118 -66 -204 -88 -336 -88 -139 1 -190
12 -295 63 -151 74 -261 184 -334 335 -55 115 -66 163 -65 295 1 95 5 128 26
192 78 236 268 420 498 482 72 19 238 20 320 1z m-1730 -12 c-1 -16 -30 -46
-37 -38 -5 4 -2 10 5 12 6 3 12 11 12 19 0 8 5 14 10 14 6 0 10 -3 10 -7z
m2230 -83 c-20 -13 -33 -13 -25 0 3 6 14 10 23 10 15 0 15 -2 2 -10z m44 -21
c-8 -14 -21 -11 -21 5 0 8 6 12 14 9 7 -3 10 -9 7 -14z m-217 -18 c-1 -3 13
-21 32 -39 19 -17 30 -32 25 -32 -6 0 -29 20 -53 44 -33 34 -39 44 -23 39 12
-3 20 -8 19 -12z m69 4 c9 -8 11 -15 6 -15 -5 0 -15 7 -22 15 -7 8 -9 15 -6
15 4 0 14 -7 22 -15z m248 0 c15 -8 35 -15 44 -15 8 0 13 -2 10 -5 -12 -12
-108 7 -108 21 0 18 18 18 54 -1z m-269 -15 c3 -5 1 -10 -4 -10 -6 0 -11 5
-11 10 0 6 2 10 4 10 3 0 8 -4 11 -10z m35 -80 c0 -5 -2 -10 -4 -10 -3 0 -8 5
-11 10 -3 6 -1 10 4 10 6 0 11 -4 11 -10z m35 -40 c-3 -5 -10 -10 -16 -10 -5
0 -9 5 -9 10 0 6 7 10 16 10 8 0 12 -4 9 -10z m360 -108 c-3 -3 -11 0 -18 7
-9 10 -8 11 6 5 10 -3 15 -9 12 -12z m-2700 -62 c3 -6 -1 -7 -9 -4 -10 4 -16
1 -16 -7 0 -7 -3 -10 -6 -6 -7 7 4 27 16 27 5 0 12 -4 15 -10z m3065 -72 c0
-5 -5 -8 -11 -8 -5 0 -7 5 -4 10 3 6 -1 10 -9 10 -10 0 -13 6 -10 15 6 14 8
13 20 -2 7 -10 14 -21 14 -25z m-132 -43 c8 0 17 -7 19 -15 4 -11 2 -12 -5 -2
-5 7 -15 10 -23 8 -8 -3 -22 6 -33 22 l-20 27 23 -20 c13 -11 30 -20 39 -20z
m62 25 c-20 -13 -33 -13 -25 0 3 6 14 10 23 10 15 0 15 -2 2 -10z m-5010
-1502 c63 -30 70 -36 76 -68 4 -19 13 -60 20 -90 8 -30 23 -95 34 -145 11 -49
22 -97 25 -106 4 -12 -8 -24 -40 -43 l-45 -27 -107 68 c-220 137 -395 254
-390 260 6 5 349 182 355 183 2 0 34 -15 72 -32z m1590 -130 c0 -7 -4 -19 -9
-27 -6 -9 -8 -5 -8 13 0 14 3 26 8 26 5 0 9 -6 9 -12z m-2002 -167 c15 -11 88
-56 162 -100 74 -45 167 -100 206 -125 l71 -44 5 -71 c6 -87 36 -137 105 -178
40 -23 59 -28 113 -27 66 0 98 11 137 46 l21 20 64 -33 c35 -18 108 -59 163
-90 55 -31 112 -63 127 -70 125 -64 159 -83 167 -93 7 -8 5 -26 -4 -51 -8 -22
-14 -48 -15 -57 0 -23 -20 -32 -115 -54 -111 -26 -391 -26 -485 -1 -339 93
-536 247 -663 519 -54 114 -61 138 -81 279 -17 113 -19 149 -11 149 3 0 18 -9
33 -19z m689 -221 c25 0 72 -52 79 -86 18 -94 -79 -164 -165 -119 -37 19 -65
77 -57 119 9 49 72 100 111 91 11 -3 25 -5 32 -5z m4193 -1120 c80 -10 190
-26 245 -35 58 -9 155 -15 230 -14 l130 1 -3 -49 c-7 -103 -68 -263 -143 -374
-145 -216 -366 -359 -624 -405 -157 -28 -312 -9 -470 57 -274 114 -473 379
-501 666 l-6 72 38 10 c169 44 344 78 469 91 122 13 470 2 635 -20z m-1328
-225 c24 -258 218 -548 476 -714 43 -27 54 -40 63 -74 6 -23 25 -98 44 -167
65 -246 86 -338 88 -396 2 -57 1 -59 -33 -76 -19 -9 -45 -17 -57 -18 -55 -1
-68 14 -150 182 -88 178 -244 430 -344 554 -114 141 -180 195 -360 297 -49 28
-172 151 -215 217 -15 22 -25 41 -23 43 21 13 309 151 341 164 23 9 63 27 88
40 67 33 74 29 82 -52z m-1864 -256 c72 -45 199 -109 219 -109 6 0 14 -4 17
-8 5 -8 -96 -329 -128 -409 -17 -41 -36 -53 -83 -53 -12 0 -27 -9 -33 -20 -12
-23 -30 -18 -80 20 -19 15 -107 76 -195 135 -202 136 -205 139 -205 187 0 37
3 41 60 76 33 20 124 79 203 129 78 51 146 93 151 93 5 0 38 -19 74 -41z"/>
<path d="M6376 8317 c-13 -10 -17 -24 -14 -67 3 -51 5 -55 29 -58 33 -4 37 8
30 77 -6 58 -16 69 -45 48z"/>
<path d="M6084 8206 c-8 -20 23 -76 42 -76 23 0 27 25 9 59 -16 33 -42 41 -51
17z"/>
<path d="M6650 8188 c-19 -31 -14 -58 11 -58 12 0 50 76 42 84 -14 14 -34 4
-53 -26z"/>
<path d="M6362 8098 c-8 -8 -12 -58 -12 -160 0 -138 -1 -149 -21 -169 -13 -13
-24 -39 -26 -64 -5 -37 -2 -44 27 -68 21 -18 43 -27 67 -27 27 0 57 -15 127
-64 51 -35 101 -66 113 -70 25 -8 57 25 49 51 -3 11 -51 52 -106 92 -76 55
-100 78 -100 95 0 12 -11 33 -25 46 -24 23 -25 27 -25 167 0 80 -5 153 -10
164 -12 21 -40 25 -58 7z"/>
<path d="M5868 8008 c-9 -23 3 -38 43 -59 68 -34 84 5 19 46 -45 28 -56 30
-62 13z"/>
<path d="M6853 7994 c-46 -27 -50 -33 -32 -51 24 -24 111 39 93 68 -8 13 -15
11 -61 -17z"/>
<path d="M5796 7732 c-13 -3 -16 -12 -14 -35 3 -31 4 -32 53 -33 71 -1 85 4
85 31 0 39 -44 52 -124 37z"/>
<path d="M6880 7726 c-17 -21 -9 -61 13 -60 9 0 40 1 67 2 45 2 50 4 50 25 0
13 -5 28 -12 35 -17 17 -103 15 -118 -2z"/>
<path d="M5897 7439 c-32 -17 -36 -22 -27 -39 14 -25 22 -25 65 3 63 40 30 72
-38 36z"/>
<path d="M6813 7444 c-4 -12 4 -25 28 -45 38 -32 49 -35 67 -17 19 19 14 36
-15 51 -53 27 -73 30 -80 11z"/>
<path d="M6101 7246 c-24 -39 -27 -76 -7 -76 16 0 56 59 56 83 0 30 -29 26
-49 -7z"/>
<path d="M6637 7263 c-15 -14 -6 -44 22 -75 28 -32 28 -32 36 -9 12 40 -34
108 -58 84z"/>
<path d="M6364 7207 c-3 -8 -4 -39 -2 -68 3 -51 5 -54 31 -57 l28 -3 -3 68
c-3 62 -5 68 -26 71 -12 2 -24 -3 -28 -11z"/>
<path d="M6210 4510 c-11 -8 -6 -9 21 -4 25 4 47 0 68 -10 18 -10 41 -14 56
-10 38 9 40 23 3 22 -18 0 -55 3 -83 7 -30 3 -56 2 -65 -5z"/>
<path d="M6161 4434 c-1 -26 5 -34 38 -50 36 -17 49 -40 16 -27 -8 3 -15 0
-15 -6 0 -6 9 -11 19 -11 13 0 21 -8 23 -22 2 -13 9 -22 17 -20 7 1 20 -3 29
-10 13 -11 14 -9 8 16 -5 19 -3 32 5 37 11 6 19 3 52 -27 7 -6 24 -16 37 -23
14 -7 -2 12 -35 43 -54 50 -65 55 -105 56 -55 0 -68 8 -80 46 l-8 29 -1 -31z
m134 -74 c3 -5 1 -10 -4 -10 -6 0 -11 5 -11 10 0 6 2 10 4 10 3 0 8 -4 11 -10z"/>
<path d="M6466 4429 l-40 -21 25 -20 c103 -83 332 -196 376 -186 11 3 1 10
-27 17 -25 8 -64 22 -87 32 -24 11 -45 19 -48 19 -13 0 -84 53 -89 66 -5 12
-2 12 17 3 18 -9 20 -9 10 2 -9 9 -10 16 -2 26 9 10 8 13 -5 13 -9 0 -16 6
-16 14 0 9 18 16 51 20 75 10 48 28 -48 33 -65 3 -85 0 -117 -18z"/>
<path d="M6327 4296 c-3 -8 -2 -18 4 -22 16 -9 22 2 11 21 -8 15 -10 16 -15 1z"/>
<path d="M6240 4269 c0 -5 5 -7 10 -4 6 3 10 8 10 11 0 2 -4 4 -10 4 -5 0 -10
-5 -10 -11z"/>
<path d="M6435 4260 c10 -11 20 -20 23 -20 3 0 -3 9 -13 20 -10 11 -20 20 -23
20 -3 0 3 -9 13 -20z"/>
<path d="M6527 4199 c7 -7 15 -10 18 -7 3 3 -2 9 -12 12 -14 6 -15 5 -6 -5z"/>
<path d="M6886 4185 c22 -7 65 -15 95 -18 l54 -6 -50 13 c-27 7 -70 15 -95 19
l-45 6 41 -14z"/>
<path d="M6610 4156 c0 -4 12 -11 26 -16 18 -7 24 -15 20 -27 -5 -13 -4 -14 9
-3 9 7 19 10 22 6 4 -4 1 -11 -7 -16 -12 -8 -9 -10 11 -10 29 0 86 -39 59 -40
-9 0 -22 6 -29 13 -10 10 -11 8 -5 -8 6 -17 5 -18 -7 -8 -14 12 -47 17 -83 15
-19 -2 -19 -3 3 -23 18 -17 29 -20 59 -13 53 11 80 14 140 14 28 1 52 5 52 10
0 6 7 10 16 10 8 0 13 -4 10 -9 -6 -9 49 -21 102 -21 17 0 32 4 32 9 0 5 12
11 28 13 15 2 -13 8 -63 12 -138 12 -275 45 -377 90 -10 5 -18 5 -18 2z m403
-113 c-7 -2 -19 -2 -25 0 -7 3 -2 5 12 5 14 0 19 -2 13 -5z"/>
<path d="M6605 4120 c3 -5 8 -10 11 -10 2 0 4 5 4 10 0 6 -5 10 -11 10 -5 0
-7 -4 -4 -10z"/>
<path d="M5657 4452 c8 -83 22 -140 44 -174 12 -18 18 -24 14 -13 -22 66 -45
164 -45 192 0 17 -4 34 -9 37 -5 3 -7 -16 -4 -42z"/>
<path d="M5780 4115 c0 -2 9 -19 20 -37 23 -39 27 -30 5 12 -14 27 -25 38 -25
25z"/>
<path d="M8769 8469 c-57 -40 -130 -90 -161 -111 -32 -22 -58 -42 -58 -45 0
-3 6 -1 13 4 24 19 46 23 40 7 -3 -7 -9 -14 -14 -14 -6 0 -30 -19 -55 -42 -25
-24 -62 -59 -83 -78 -21 -19 -78 -73 -127 -121 -103 -98 -168 -150 -158 -125
3 9 1 16 -5 16 -6 0 -14 0 -18 0 -5 0 -8 -5 -8 -12 0 -6 -6 -13 -14 -16 -9 -3
-11 0 -6 9 16 24 -59 -35 -130 -103 -67 -65 -76 -80 -34 -58 13 8 19 7 19 0 0
-6 -7 -13 -15 -16 -8 -4 -15 -14 -15 -23 0 -14 -2 -14 -11 -1 -9 12 -10 12 -5
-3 3 -10 6 -21 6 -23 0 -3 10 1 23 7 l22 11 -22 -21 c-25 -24 -39 -26 -50 -8
-11 17 -43 18 -43 1 0 -8 -3 -14 -8 -14 -35 0 -442 -416 -703 -720 -102 -118
-319 -378 -384 -460 -33 -41 -67 -84 -76 -95 -38 -46 -198 -233 -227 -263
l-32 -34 -53 59 c-30 32 -65 70 -78 85 -50 55 -202 168 -273 204 -78 38 -176
59 -161 34 5 -8 -1 -7 -16 3 -13 9 -30 17 -38 17 -8 0 25 -37 73 -81 98 -92
204 -220 404 -487 l137 -183 43 48 c23 26 84 103 135 170 51 67 148 196 216
285 127 168 294 391 346 464 38 53 376 471 475 588 122 145 389 434 537 582
158 156 490 459 608 553 134 108 131 110 -16 10z m-918 -824 c0 -5 -9 -11 -21
-13 -20 -3 -27 8 -13 22 10 9 34 3 34 -9z"/>
<path d="M8017 8433 c-8 -39 -52 -92 -92 -109 l-30 -12 26 -10 c46 -18 88 -61
95 -99 5 -24 9 -31 15 -21 5 7 9 23 9 35 0 24 42 63 89 83 l32 13 -38 17 c-47
21 -69 45 -86 95 l-14 39 -6 -31z m53 -137 c0 -2 -6 -9 -13 -15 -10 -8 -14 -7
-14 4 0 8 6 15 14 15 7 0 13 -2 13 -4z"/>
<path d="M8079 7973 c-13 -16 -12 -17 4 -4 9 7 17 15 17 17 0 8 -8 3 -21 -13z"/>
<path d="M8501 7808 c-21 -96 -86 -159 -182 -174 l-44 -8 36 -7 c48 -11 127
-58 150 -89 10 -14 24 -47 30 -75 19 -80 22 -83 31 -27 15 98 58 146 159 180
l53 19 -45 11 c-58 15 -126 64 -144 105 -7 17 -18 52 -22 77 l-9 45 -13 -57z"/>
<path d="M7612 7086 l-32 -44 0 -132 0 -132 -30 -30 c-24 -24 -30 -38 -30 -73
0 -36 5 -48 31 -69 48 -41 101 -38 143 6 23 26 27 37 22 66 -3 19 -17 51 -31
71 -24 36 -25 41 -25 209 0 95 -4 172 -8 172 -5 0 -23 -20 -40 -44z"/>
<path d="M4437 7093 c3 -9 12 -44 18 -77 10 -46 13 -53 14 -28 1 41 -18 122
-30 122 -5 0 -6 -7 -2 -17z"/>
<path d="M4341 7014 c-1 -28 -8 -70 -16 -93 -12 -36 -12 -41 0 -41 8 0 15 -4
15 -10 0 -5 8 -10 18 -11 9 0 12 -3 5 -5 -6 -3 -10 -16 -7 -29 2 -13 -1 -27
-6 -30 -17 -11 -60 -13 -60 -4 0 5 -15 9 -32 10 l-33 1 28 10 c33 12 37 33 5
24 -114 -33 -189 -7 -239 83 -11 20 -17 27 -14 16 15 -47 14 -53 -8 -47 -18 5
-20 3 -10 -9 10 -12 8 -17 -8 -27 -17 -11 -23 -9 -44 14 -30 33 -32 18 -4 -35
26 -50 79 -98 138 -124 36 -16 60 -19 125 -15 92 5 128 20 186 78 l40 40 -18
32 c-11 19 -28 34 -40 36 -19 3 -21 8 -17 35 9 51 16 68 26 62 11 -8 12 0 0
23 -5 9 -14 28 -19 42 -9 22 -11 19 -11 -26z m-15 -259 c-15 -14 -32 -25 -39
-25 -15 1 40 50 55 50 6 0 -1 -11 -16 -25z"/>
<path d="M2700 7036 c0 -2 7 -9 15 -16 13 -11 14 -10 9 4 -5 14 -24 23 -24 12z"/>
<path d="M2710 6953 c1 -19 18 -33 33 -27 14 5 14 8 2 20 -15 15 -35 19 -35 7z"/>
<path d="M2665 6939 c-11 -16 -1 -19 13 -3 7 8 8 14 3 14 -5 0 -13 -5 -16 -11z"/>
<path d="M4362 6924 c-8 -9 -9 -14 -2 -14 6 0 8 -4 5 -10 -7 -12 5 -13 22 -2
10 7 10 11 0 24 -10 15 -14 15 -25 2z"/>
<path d="M2754 6895 c-10 -8 -14 -15 -8 -15 6 0 17 7 24 15 16 19 9 19 -16 0z"/>
<path d="M4567 6683 c-92 -120 -165 -313 -187 -491 -12 -91 -1 -230 25 -320 7
-26 20 -73 29 -105 37 -135 167 -319 301 -428 36 -29 65 -56 65 -60 0 -5 -60
-44 -132 -87 -73 -43 -156 -94 -185 -112 -52 -32 -53 -32 -87 -16 -68 32 -139
11 -190 -56 -27 -38 -27 -118 0 -155 33 -44 70 -66 122 -71 48 -4 53 -2 93 36
38 35 44 46 49 93 l5 54 131 80 c72 44 146 92 165 106 19 14 53 36 76 49 l42
23 101 -47 c129 -61 196 -83 300 -102 100 -17 288 -20 380 -5 146 24 327 101
488 209 l89 60 172 8 c165 7 173 6 194 -14 97 -91 237 6 170 118 -35 60 -105
67 -162 15 l-38 -35 -112 0 c-61 0 -111 2 -111 4 0 2 9 15 20 28 65 74 178
223 173 228 -2 3 -14 -6 -25 -20 -11 -14 -23 -24 -26 -22 -3 1 -7 -5 -8 -14
-3 -22 -45 -65 -56 -58 -5 4 3 20 19 37 l28 31 -30 -18 c-16 -10 -39 -26 -50
-35 -79 -67 -404 -259 -533 -316 -219 -96 -477 -98 -728 -6 -111 41 -201 89
-187 100 4 4 43 20 86 36 126 44 238 131 295 227 9 16 19 28 22 28 3 0 13 -15
23 -33 45 -83 146 -92 191 -17 15 26 23 30 62 30 57 0 94 32 94 83 0 45 8 50
41 26 34 -24 116 -53 195 -69 33 -6 88 -20 123 -31 35 -10 67 -19 72 -19 15 0
10 33 -9 62 -45 70 -167 220 -218 268 l-56 53 18 32 c15 29 16 37 4 66 -19 47
-303 329 -371 368 -63 36 -116 39 -244 15 -167 -31 -177 -31 -252 9 -38 20
-95 52 -128 71 -68 41 -87 44 -133 16 -102 -63 -90 -171 28 -243 19 -11 50
-32 67 -45 l33 -24 -28 -42 c-16 -22 -55 -90 -87 -151 -32 -60 -73 -132 -91
-160 -37 -54 -113 -120 -125 -108 -18 18 -40 136 -46 240 -12 224 39 387 181
578 l30 40 -31 -28 c-26 -24 -31 -26 -37 -12 -3 9 -10 13 -16 10 -12 -7 -14
-26 -2 -22 14 4 9 -18 -12 -50 -21 -33 -36 -42 -36 -23 0 6 5 10 10 10 6 0 10
7 10 16 0 8 -4 12 -10 9 -5 -3 -10 -1 -10 4 0 6 10 11 23 12 21 1 21 1 -3 9
-17 5 -19 8 -7 9 9 1 17 6 17 12 0 6 -7 9 -15 5 -8 -3 -15 0 -15 6 0 18 -41
-30 -43 -50 -1 -15 -37 -27 -37 -12 0 7 41 74 49 80 9 7 51 80 46 80 -2 0 -24
-26 -48 -57z m313 -203 c-1 -3 -10 -16 -21 -29 l-20 -25 -26 27 c-26 26 -26
27 -9 46 18 20 20 20 47 4 16 -10 29 -20 29 -23z m115 -40 c10 -11 115 -78
234 -149 284 -171 264 -153 202 -179 l-52 -21 -57 36 c-156 100 -266 168 -305
188 -46 24 -110 75 -103 82 3 3 21 -5 41 -17 47 -29 56 -20 10 11 -39 27 -42
36 -17 55 23 18 26 17 47 -6z m458 -14 c82 -36 372 -308 365 -344 -6 -32 -43
-25 -72 13 -30 39 -92 75 -129 75 -27 0 -142 72 -150 94 -3 7 -22 17 -43 21
-21 3 -70 26 -109 49 -38 23 -79 46 -89 49 -29 11 -13 19 82 38 110 22 106 22
145 5z m-1009 -83 c-2 -71 -3 -75 -14 -68 -7 5 -8 11 -1 19 6 6 6 18 1 25 -6
11 5 71 14 71 1 0 1 -21 0 -47z m624 -160 c48 -32 98 -63 112 -71 38 -20 91
-75 82 -84 -5 -5 -49 -11 -98 -14 -49 -2 -95 -7 -101 -9 -26 -9 -12 -35 29
-56 34 -17 54 -20 112 -17 63 4 86 12 201 67 153 75 227 89 264 52 23 -23 21
-51 -5 -81 -7 -8 -70 -46 -141 -85 -132 -72 -144 -83 -328 -278 -68 -72 -144
-114 -223 -124 -38 -4 -59 -13 -81 -36 l-31 -29 -78 78 c-43 44 -100 112 -127
153 l-50 74 29 21 c84 60 115 99 186 234 121 228 141 262 151 262 6 0 49 -26
97 -57z m807 -287 c7 -11 3 -22 -15 -41 -13 -14 -27 -25 -32 -25 -5 0 -31 17
-58 37 -47 35 -61 53 -42 53 5 0 14 11 20 25 l12 26 52 -30 c29 -17 57 -37 63
-45z m-225 -86 c12 -29 9 -62 -9 -89 -14 -21 -28 -6 -46 50 -15 43 -15 53 -4
60 26 16 47 9 59 -21z m335 -10 c39 -41 23 -55 -33 -30 -23 10 -42 24 -42 30
0 6 5 8 10 5 6 -3 10 1 10 9 0 25 24 19 55 -14z m-470 -60 c9 -29 -6 -91 -23
-97 -20 -8 -52 32 -52 63 0 29 34 66 54 58 9 -3 18 -14 21 -24z"/>
<path d="M5085 6300 c10 -11 23 -20 28 -20 6 0 2 9 -8 20 -10 11 -23 20 -28
20 -6 0 -2 -9 8 -20z"/>
<path d="M5912 6603 c-28 -21 -49 -40 -47 -42 3 -3 65 41 100 71 26 23 -9 3
-53 -29z"/>
<path d="M3626 6549 c14 -16 15 -23 7 -26 -9 -3 -10 -10 -3 -23 6 -11 17 -17
24 -14 8 3 22 -3 32 -13 53 -52 52 -40 -1 24 -33 39 -64 72 -69 72 -5 1 -1 -9
10 -20z m29 -38 c3 -5 1 -12 -5 -16 -5 -3 -10 1 -10 9 0 18 6 21 15 7z"/>
<path d="M3600 6529 c0 -5 5 -7 10 -4 6 3 10 8 10 11 0 2 -4 4 -10 4 -5 0 -10
-5 -10 -11z"/>
<path d="M3546 6508 c-9 -12 -19 -17 -27 -12 -9 5 -10 2 -6 -10 4 -10 7 -20 7
-22 0 -2 6 -4 14 -4 7 0 16 -9 19 -20 3 -11 10 -20 15 -20 13 0 22 39 11 46
-5 3 -9 12 -9 21 0 12 3 13 14 4 18 -15 34 5 17 22 -18 18 -40 16 -55 -5z"/>
<path d="M3482 6498 c-5 -7 -13 -24 -17 -38 -7 -22 -6 -23 8 -12 14 12 18 9
32 -17 8 -17 17 -31 20 -31 7 0 -14 61 -25 76 -7 7 -9 18 -5 24 9 14 0 13 -13
-2z"/>
<path d="M7430 6448 c-17 -9 -30 -31 -42 -72 -22 -71 -31 -83 -68 -91 -21 -5
-43 2 -85 25 l-56 31 -32 -20 c-44 -27 -157 -145 -157 -164 0 -8 13 -43 29
-76 43 -91 28 -119 -77 -141 -32 -7 -56 -19 -62 -30 -6 -10 -10 -75 -10 -143
l0 -125 28 -10 c15 -5 47 -16 72 -23 25 -7 51 -17 58 -22 22 -17 14 -80 -17
-128 -38 -60 -28 -79 101 -191 l57 -50 66 33 c92 45 110 38 142 -56 13 -38 31
-76 40 -82 20 -15 209 -18 245 -4 20 7 27 23 42 85 17 74 18 75 53 82 30 6 47
1 96 -26 53 -29 61 -31 84 -19 39 21 153 147 153 169 0 11 -13 45 -29 75 -44
82 -28 111 79 142 30 8 61 20 68 25 8 8 12 48 12 139 0 136 -7 159 -51 159
-38 0 -119 42 -125 64 -3 12 8 49 26 89 22 49 28 72 21 85 -15 27 -157 162
-172 162 -7 0 -37 -14 -67 -31 -84 -47 -130 -27 -146 63 -13 71 -30 81 -147
85 -73 3 -111 0 -129 -9z m177 -90 c4 -7 9 -22 10 -33 5 -47 16 -85 27 -93 16
-13 144 -62 159 -62 8 0 35 14 61 32 l48 31 37 -44 38 -43 -30 -56 -30 -55 27
-70 c16 -39 32 -75 38 -82 5 -6 31 -14 58 -18 71 -10 79 -19 73 -92 l-5 -62
-60 -12 -60 -12 -40 -84 c-44 -91 -44 -91 2 -160 l21 -31 -36 -36 -36 -36 -44
30 c-24 16 -50 30 -59 30 -22 0 -159 -64 -172 -81 -6 -8 -14 -36 -17 -62 -2
-27 -9 -53 -14 -58 -5 -5 -34 -7 -65 -3 -62 7 -68 15 -68 86 l0 38 -95 44 -95
45 -50 -31 -49 -30 -30 23 c-43 34 -46 51 -16 96 31 45 30 73 -10 157 -22 47
-32 57 -63 66 -20 5 -50 10 -65 10 l-28 0 3 78 3 77 60 8 60 8 33 84 33 83
-30 54 -31 54 36 37 c20 20 41 37 47 37 5 0 25 -11 43 -25 42 -32 63 -32 156
7 l77 31 6 52 c4 29 10 57 13 62 14 23 116 31 129 11z"/>
<path d="M7448 6097 c-66 -19 -112 -53 -162 -119 -52 -68 -70 -134 -64 -227
13 -182 185 -328 360 -308 106 13 220 104 270 216 32 70 29 172 -5 243 -33 67
-118 157 -173 183 -49 23 -163 29 -226 12z m202 -111 c54 -26 102 -93 120
-165 26 -108 -46 -228 -159 -266 -229 -76 -406 235 -224 395 80 70 169 82 263
36z"/>
<path d="M7875 5386 c17 -13 32 -22 35 -19 7 6 -39 43 -54 43 -6 0 3 -11 19
-24z"/>
<path d="M7176 5391 c-15 -6 -16 -10 -7 -15 8 -5 20 -2 29 8 17 17 9 19 -22 7z"/>
<path d="M3441 6429 c-1 -9 -8 -19 -16 -23 -17 -6 -21 -26 -5 -26 13 0 32 38
26 53 -2 7 -5 5 -5 -4z"/>
<path d="M3486 6415 c4 -8 8 -15 10 -15 2 0 4 7 4 15 0 8 -4 15 -10 15 -5 0
-7 -7 -4 -15z"/>
<path d="M3460 6398 c0 -18 18 -34 28 -24 3 4 -2 14 -11 23 -16 16 -17 16 -17
1z"/>
<path d="M3435 5760 c-10 -11 -16 -22 -14 -24 2 -2 12 7 22 20 22 29 17 32 -8
4z"/>
<path d="M1600 5307 c0 -7 28 -130 41 -181 6 -21 12 -36 14 -34 5 4 -44 210
-51 217 -2 2 -4 2 -4 -2z"/>
<path d="M1711 4915 c1 -19 18 -51 18 -35 0 8 -4 22 -9 30 -5 8 -9 11 -9 5z"/>
<path d="M1740 4827 c0 -14 51 -142 60 -151 15 -15 13 -8 -20 74 -29 70 -40
91 -40 77z"/>
<path d="M2674 4661 c-32 -14 -64 -60 -64 -93 0 -63 45 -108 108 -108 86 0
128 125 63 184 -22 20 -78 29 -107 17z m66 -74 c0 -4 -4 -5 -10 -2 -11 7 -13
-2 -10 -57 1 -35 -1 -38 -24 -38 -14 0 -25 3 -25 8 1 4 1 14 0 22 -1 13 -2 13
-11 0 -8 -13 -10 -12 -10 3 0 9 -4 17 -10 17 -5 0 -10 13 -10 30 0 22 4 28 15
24 8 -4 15 -15 15 -26 0 -19 1 -19 24 3 13 13 21 29 18 37 -4 12 -2 12 17 1
11 -8 21 -17 21 -22z m59 -16 c-2 -6 -10 2 -17 17 -11 25 -11 25 4 10 9 -9 15
-21 13 -27z m-24 -60 c3 -5 1 -12 -5 -16 -5 -3 -10 1 -10 9 0 18 6 21 15 7z"/>
<path d="M1810 4642 c0 -13 160 -325 213 -412 68 -114 156 -248 169 -256 6 -4
-6 18 -25 47 -114 174 -233 385 -322 572 -26 54 -35 67 -35 49z"/>
<path d="M2364 4403 c9 -17 21 -35 27 -39 13 -8 -1 21 -26 51 -15 19 -15 18
-1 -12z"/>
<path d="M2280 4376 c0 -14 5 -26 10 -26 6 0 10 9 10 19 0 11 -4 23 -10 26 -6
4 -10 -5 -10 -19z"/>
<path d="M2400 4343 c1 -12 60 -88 60 -77 0 11 -48 84 -55 84 -3 0 -5 -3 -5
-7z"/>
<path d="M2120 4169 c0 -5 5 -7 10 -4 6 3 10 8 10 11 0 2 -4 4 -10 4 -5 0 -10
-5 -10 -11z"/>
<path d="M2600 4052 c0 -4 10 -13 23 -21 22 -14 22 -14 3 8 -20 22 -26 25 -26
13z"/>
<path d="M2226 3920 c15 -22 29 -38 31 -36 5 5 -46 76 -53 76 -3 0 8 -18 22
-40z"/>
<path d="M2756 3868 c10 -12 33 -36 50 -53 48 -47 50 -63 6 -63 -20 0 -42 4
-47 8 -6 5 -17 5 -25 0 -12 -8 -12 -10 3 -16 9 -3 17 -12 17 -20 0 -15 12 -18
24 -6 11 10 30 9 38 -3 5 -6 8 -4 8 6 0 25 41 17 75 -13 17 -16 34 -28 39 -28
6 0 -37 47 -94 105 -99 99 -137 133 -94 83z"/>
<path d="M2270 3864 c0 -26 287 -346 430 -480 99 -93 248 -221 315 -270 155
-113 183 -132 230 -159 28 -16 75 -45 105 -65 101 -67 256 -147 516 -265 173
-79 514 -187 514 -163 0 5 -72 29 -147 48 -49 12 -60 36 -13 27 23 -5 30 -3
30 9 0 11 -6 13 -19 9 -11 -3 -22 -1 -26 5 -3 5 -21 10 -38 10 -18 0 -39 5
-47 10 -12 8 -12 10 -1 10 11 0 11 3 1 15 -7 8 -19 15 -26 15 -8 0 -14 5 -14
11 0 5 -4 8 -10 4 -5 -3 -18 0 -28 6 -15 9 -31 8 -75 -6 l-56 -17 -63 29 c-35
17 -79 38 -98 46 -156 70 -207 96 -219 111 -12 15 -12 16 5 10 14 -4 15 -3 5
4 -7 5 -21 8 -30 5 -10 -2 -47 16 -85 41 -37 25 -76 48 -87 51 -10 4 -16 11
-13 17 4 6 3 8 -3 5 -5 -3 -22 3 -38 13 -24 16 -25 19 -10 19 11 -1 34 1 51 4
17 3 37 1 45 -4 12 -8 11 -12 -3 -23 -26 -19 -22 -26 13 -26 25 0 30 3 25 16
-4 9 -1 23 5 30 8 10 5 20 -13 43 -32 41 -50 48 -37 13 9 -24 7 -23 -27 11
-20 21 -33 41 -30 44 3 4 12 -2 19 -12 12 -15 15 -16 20 -3 4 11 14 14 34 10
15 -2 25 -2 22 2 -4 4 -21 8 -38 8 -17 1 -31 5 -31 10 0 5 -13 7 -28 3 -20 -4
-34 0 -50 16 -13 11 -29 18 -37 15 -7 -2 -15 0 -17 6 -3 8 -11 7 -26 -1 -26
-14 -95 -9 -115 8 -12 9 -16 8 -21 -4 -5 -13 -17 -8 -63 28 -131 101 -371 325
-393 368 -11 20 -10 20 18 5 27 -14 31 -14 36 0 8 22 7 31 -2 17 -5 -8 -12 -8
-26 2 -15 12 -17 19 -8 44 7 20 7 33 1 37 -5 3 -7 15 -4 25 7 22 -30 63 -47
53 -6 -4 -5 -9 2 -14 9 -6 9 -13 0 -31 -12 -21 -13 -21 -25 -5 -9 11 -23 16
-40 14 -28 -3 -27 -3 24 -57 29 -29 50 -56 47 -59 -3 -3 -35 26 -70 64 -43 45
-61 71 -53 76 6 4 14 2 18 -4 4 -7 9 -7 13 1 10 16 -22 26 -38 12 -11 -10 -26
3 -77 66 -81 101 -79 99 -79 87z m795 -762 c-8 -8 -25 10 -19 20 4 6 9 5 15
-3 4 -7 6 -15 4 -17z m131 -89 c-7 -7 -26 7 -26 19 0 6 6 6 15 -2 9 -7 13 -15
11 -17z m786 -408 c3 3 29 -4 59 -14 31 -11 45 -20 32 -20 -12 -1 -34 4 -50
10 -15 7 -36 13 -46 14 -10 1 -23 8 -30 15 -10 10 -8 10 9 2 12 -6 23 -9 26
-7z"/>
<path d="M7757 3805 l-48 -54 46 -80 c24 -44 57 -115 72 -158 25 -71 28 -90
27 -213 -1 -167 -29 -285 -104 -435 -92 -183 -214 -319 -398 -444 -234 -158
-527 -219 -817 -169 -52 8 -201 60 -253 87 -9 5 -44 22 -77 38 -49 23 -60 33
-58 50 2 20 -1 22 -30 16 -17 -3 -46 -12 -64 -19 -17 -7 -66 -18 -107 -25 -42
-7 -76 -17 -76 -21 0 -5 18 -41 39 -81 103 -189 322 -779 337 -909 6 -49 4
-57 -21 -86 -20 -24 -35 -32 -60 -32 -62 0 -77 15 -132 128 -107 221 -299 533
-406 659 -23 27 -53 63 -67 80 -69 83 -243 257 -302 301 -110 83 -209 117
-322 110 l-59 -3 -27 -80 c-25 -73 -29 -80 -51 -77 -19 3 -21 1 -12 -8 6 -7
72 -20 145 -30 78 -9 148 -24 168 -34 47 -24 245 -226 347 -354 186 -232 290
-397 432 -685 49 -101 97 -190 106 -197 13 -11 25 -11 53 -3 133 39 356 144
379 179 30 47 28 138 -5 265 -51 188 -129 408 -204 572 -17 37 -29 69 -26 72
3 3 36 -9 74 -26 141 -64 392 -107 551 -95 233 18 480 97 641 207 23 16 63 43
90 61 88 59 242 225 308 333 84 136 96 162 142 300 54 162 66 244 60 417 -5
157 -20 212 -77 273 -15 17 -56 74 -91 128 -35 53 -67 97 -70 97 -3 0 -27 -25
-53 -55z"/>
<path d="M4566 3811 l-37 -38 20 -34 c24 -39 27 -97 7 -124 -8 -11 -36 -24
-63 -30 l-48 -10 -3 -75 -3 -75 53 -15 c45 -13 56 -21 71 -53 22 -44 17 -73
-17 -114 l-24 -29 54 -54 55 -53 25 26 c19 21 34 27 65 27 68 0 82 -15 103
-113 7 -28 7 -28 82 -25 l76 3 18 57 c10 31 16 60 14 63 -2 3 -1 3 2 0 4 -2
19 2 35 10 38 20 63 19 84 -5 34 -38 52 -35 100 17 55 59 59 77 6 23 -44 -44
-56 -47 -89 -24 -13 9 -33 17 -45 19 -12 1 -31 6 -41 11 -12 5 -17 4 -13 -3 7
-11 -42 -37 -52 -27 -3 4 0 9 7 11 25 9 11 22 -18 17 -19 -4 -30 -2 -30 5 0 7
-9 9 -22 6 -13 -3 -30 -1 -38 5 -13 8 -12 11 5 24 11 9 28 16 39 16 15 0 16 3
6 15 -8 9 -29 15 -56 15 -24 0 -63 5 -87 12 -37 9 -47 9 -70 -7 -26 -17 -40
-54 -14 -39 9 6 9 5 0 -7 -10 -12 -10 -18 0 -28 9 -10 9 -12 -3 -9 -8 2 -18
10 -22 18 -5 13 -7 12 -7 -2 -1 -18 -34 -33 -50 -23 -15 9 -25 -15 -12 -28 9
-9 11 -8 6 5 -5 13 -2 15 15 11 22 -6 22 -6 2 -26 -21 -20 -42 -16 -42 9 0 8
-7 14 -15 14 -32 0 -38 55 -8 73 11 7 13 23 8 75 -5 48 -3 63 4 52 7 -9 11
-10 11 -3 0 6 -4 15 -10 18 -5 3 -10 10 -10 16 0 14 28 11 33 -3 2 -7 4 -1 4
15 0 15 -3 27 -8 27 -5 0 -9 8 -9 17 0 27 50 -30 51 -59 1 -15 4 -11 8 11 3
19 11 36 17 38 11 4 40 -51 33 -61 -2 -3 5 -12 16 -20 19 -14 19 -15 2 -33
-16 -19 -16 -20 0 -20 10 0 21 4 24 9 3 4 24 -1 47 -12 55 -27 138 -26 196 1
25 11 47 27 50 35 4 12 -1 11 -22 -4 -96 -67 -216 -50 -278 40 -25 35 -29 51
-29 109 0 60 3 71 31 105 17 21 50 49 74 61 58 31 62 36 14 19 -39 -13 -116
-56 -102 -56 4 0 -4 -16 -17 -36 -17 -25 -25 -51 -25 -80 0 -24 -4 -44 -10
-44 -14 0 -13 97 1 106 8 5 8 8 0 13 -6 4 -13 25 -17 46 -3 22 -10 45 -15 51
-5 6 -6 13 -3 16 2 3 -2 8 -10 11 -9 4 -18 1 -22 -5 -4 -7 -3 -8 4 -4 7 4 12
1 12 -8 0 -9 -6 -16 -14 -16 -8 0 -16 -6 -19 -12 -2 -7 -8 1 -12 17 -4 17 -16
45 -27 63 -11 17 -15 32 -9 32 6 0 11 -4 11 -10 0 -5 7 -10 15 -10 14 0 13 3
-1 25 -9 14 -12 25 -6 25 6 0 16 9 22 20 15 29 9 25 -34 -19z m57 -222 c-17
-17 -5 -42 12 -26 7 6 10 18 8 24 -3 7 0 13 6 13 12 0 13 -37 2 -85 l-7 -30
-21 45 c-14 32 -17 50 -11 63 5 10 12 16 16 13 3 -4 1 -11 -5 -17z m172 -408
c3 -6 -4 -8 -16 -6 -30 6 -37 15 -11 15 11 0 23 -4 27 -9z m71 -26 c17 -17 49
-21 39 -5 -4 6 7 10 24 10 17 0 31 -3 32 -7 6 -87 8 -81 -30 -88 -30 -6 -33
-9 -16 -15 15 -6 9 -8 -21 -8 -39 0 -41 2 -57 45 -12 33 -14 50 -7 64 13 23
17 23 36 4z"/>
<path d="M4890 3090 c0 -5 7 -10 16 -10 8 0 12 5 9 10 -3 6 -10 10 -16 10 -5
0 -9 -4 -9 -10z"/>
<path d="M4938 3083 c7 -3 16 -2 19 1 4 3 -2 6 -13 5 -11 0 -14 -3 -6 -6z"/>
<path d="M4620 3739 c0 -5 5 -7 10 -4 6 3 10 8 10 11 0 2 -4 4 -10 4 -5 0 -10
-5 -10 -11z"/>
<path d="M2960 3661 c0 -5 7 -12 16 -15 14 -5 15 -4 4 9 -14 17 -20 19 -20 6z"/>
<path d="M3080 3555 c13 -14 26 -25 28 -25 3 0 -5 11 -18 25 -13 14 -26 25
-28 25 -3 0 5 -11 18 -25z"/>
<path d="M2660 3480 c0 -5 5 -10 10 -10 6 0 10 5 10 10 0 6 -4 10 -10 10 -5 0
-10 -4 -10 -10z"/>
<path d="M2713 3461 c0 -9 9 -18 18 -18 20 -2 15 22 -6 31 -9 3 -13 -2 -12
-13z"/>
<path d="M3341 3347 c2 -2 20 -14 39 -26 l35 -23 -30 26 c-16 14 -34 26 -39
26 -5 0 -7 -1 -5 -3z"/>
<path d="M3458 3272 c28 -25 28 -27 -3 -30 -14 -1 -25 3 -25 8 0 6 -7 10 -15
10 -8 0 -15 -7 -15 -16 0 -13 -3 -14 -14 -5 -23 20 -26 -11 -3 -31 22 -19 67
-24 67 -8 0 6 10 10 23 10 13 0 28 5 34 11 7 7 14 6 24 -3 8 -7 31 -22 51 -32
20 -11 35 -24 32 -28 -3 -5 -14 -2 -26 6 -11 8 -31 12 -45 10 -15 -3 -22 -1
-18 6 4 6 -9 10 -34 10 -34 0 -40 -3 -38 -20 1 -23 8 -25 25 -8 9 9 15 9 24 0
9 -9 9 -12 0 -12 -7 0 -12 -7 -12 -15 0 -8 7 -15 15 -15 21 0 57 -38 49 -52
-5 -7 2 -9 20 -6 14 3 26 2 26 -1 0 -10 79 0 86 10 3 5 -1 9 -9 9 -18 0 -47
32 -47 53 0 21 -1 21 45 1 43 -18 58 -13 17 5 -40 20 -95 51 -197 115 -33 20
-50 28 -37 18z m85 -132 c3 -12 0 -20 -7 -20 -6 0 -12 9 -13 20 -1 11 2 20 6
20 5 0 11 -9 14 -20z m77 -20 c0 -5 -4 -10 -10 -10 -5 0 -6 -8 -3 -17 7 -17 6
-17 -11 0 -9 9 -23 17 -29 18 -7 1 -1 5 13 9 35 11 40 11 40 0z"/>
<path d="M4662 3266 c1 -10 8 -17 13 -17 15 1 12 24 -3 29 -9 3 -13 -2 -10
-12z"/>
<path d="M4646 3223 c5 -5 12 -12 16 -18 4 -6 8 -2 8 8 0 9 -7 17 -17 17 -9 0
-12 -3 -7 -7z"/>
<path d="M2940 3208 c0 -6 3 -8 6 -5 4 4 25 -7 48 -24 29 -22 33 -24 14 -6
-16 15 -28 31 -28 37 0 5 -9 10 -20 10 -11 0 -20 -5 -20 -12z"/>
<path d="M4578 3213 c6 -3 9 -9 6 -15 -4 -6 2 -5 15 1 28 15 27 19 -6 18 -16
0 -22 -2 -15 -4z"/>
<path d="M3355 3190 c3 -5 8 -10 11 -10 2 0 4 5 4 10 0 6 -5 10 -11 10 -5 0
-7 -4 -4 -10z"/>
<path d="M3339 3154 c-11 -14 -11 -16 0 -10 8 5 16 3 22 -5 4 -7 10 -11 13 -8
3 3 0 13 -7 23 -12 17 -14 17 -28 0z"/>
<path d="M3274 3140 c0 -13 4 -16 10 -10 7 7 7 13 0 20 -6 6 -10 3 -10 -10z"/>
<path d="M3425 3130 c-3 -5 -1 -10 4 -10 6 0 11 5 11 10 0 6 -2 10 -4 10 -3 0
-8 -4 -11 -10z"/>
<path d="M3722 3090 c-10 -17 -10 -20 6 -20 11 0 18 7 18 20 0 11 -3 20 -6 20
-3 0 -11 -9 -18 -20z"/>
<path d="M3497 3089 c7 -7 15 -10 18 -7 3 3 -2 9 -12 12 -14 6 -15 5 -6 -5z"/>
<path d="M3770 3090 c0 -5 5 -10 11 -10 5 0 7 5 4 10 -3 6 -8 10 -11 10 -2 0
-4 -4 -4 -10z"/>
<path d="M3470 2880 c0 -6 7 -10 15 -10 8 0 15 2 15 4 0 2 -7 6 -15 10 -8 3
-15 1 -15 -4z"/>
<path d="M4355 2852 c6 -5 30 -13 55 -16 50 -7 29 6 -30 19 -23 5 -32 4 -25
-3z"/>
<path d="M3560 2826 c0 -3 9 -10 20 -16 11 -6 20 -8 20 -6 0 3 -9 10 -20 16
-11 6 -20 8 -20 6z"/>
<path d="M4468 2823 c7 -3 16 -2 19 1 4 3 -2 6 -13 5 -11 0 -14 -3 -6 -6z"/>
<path d="M4360 2808 c0 -4 10 -8 23 -8 12 0 33 -3 47 -7 22 -6 23 -4 12 9 -13
16 -82 21 -82 6z"/>
<path d="M4515 2810 c11 -5 29 -8 40 -8 16 0 15 2 -5 8 -34 11 -60 11 -35 0z"/>
<path d="M4460 2796 c0 -2 11 -6 25 -8 14 -3 25 -1 25 3 0 5 -11 9 -25 9 -14
0 -25 -2 -25 -4z"/>
<path d="M4600 2790 c34 -11 60 -11 35 0 -11 5 -29 8 -40 8 -16 0 -15 -2 5 -8z"/>
<path d="M4520 2766 c0 -25 7 -29 50 -28 23 0 142 14 170 20 23 5 0 8 -70 6
-78 -1 -111 3 -127 14 -22 14 -23 13 -23 -12z"/>
<path d="M4688 2773 c7 -3 16 -2 19 1 4 3 -2 6 -13 5 -11 0 -14 -3 -6 -6z"/>
<path d="M4360 2750 c-25 -6 -25 -7 -3 -14 34 -11 132 -4 144 10 9 11 -2 13
-53 12 -34 0 -74 -4 -88 -8z"/>
<path d="M4150 2610 c0 -5 5 -10 11 -10 5 0 7 -4 4 -10 -3 -6 1 -7 9 -4 20 8
20 20 0 28 -21 8 -24 8 -24 -4z"/>
<path d="M6499 2574 c-5 -15 -7 -29 -5 -32 5 -4 10 6 22 46 7 23 -7 12 -17
-14z"/>
<path d="M4200 2580 c0 -5 5 -10 10 -10 6 0 10 5 10 10 0 6 -4 10 -10 10 -5 0
-10 -4 -10 -10z"/>
<path d="M4398 2453 c7 -3 16 -2 19 1 4 3 -2 6 -13 5 -11 0 -14 -3 -6 -6z"/>
<path d="M4668 2393 c7 -3 16 -2 19 1 4 3 -2 6 -13 5 -11 0 -14 -3 -6 -6z"/>
<path d="M4723 2383 c9 -2 25 -2 35 0 9 3 1 5 -18 5 -19 0 -27 -2 -17 -5z"/>
</g>
</svg>
